<?xml version="1.0" standalone="no"?>
<!DOCTYPE svg PUBLIC "-//W3C//DTD SVG 20010904//EN"
 "http://www.w3.org/TR/2001/REC-SVG-20010904/DTD/svg10.dtd">
<svg version="1.0" xmlns="http://www.w3.org/2000/svg"
 width="474.000000pt" height="474.000000pt" viewBox="0 0 474.000000 474.000000"
 preserveAspectRatio="xMidYMid meet">
<metadata>
Created by potrace 1.14, written by Peter Selinger 2001-2017
</metadata>
<g transform="translate(0.000000,474.000000) scale(0.100000,-0.100000)"
fill="#000000" stroke="none">
<path d="M1313 4590 c-9 -16 -21 -30 -25 -30 -4 0 -8 -7 -8 -15 0 -8 -4 -15
-8 -15 -5 0 -33 -30 -63 -67 -30 -36 -70 -85 -89 -108 -76 -92 -95 -117 -102
-133 -4 -9 -7 -13 -7 -8 -1 5 -18 -13 -38 -40 -21 -27 -47 -57 -58 -66 -11
-10 -16 -17 -10 -18 5 0 -1 -7 -13 -16 -12 -8 -22 -22 -22 -31 0 -9 -3 -13 -7
-10 -7 7 -37 -31 -38 -48 -1 -5 -6 -9 -13 -8 -7 2 -12 -2 -12 -8 0 -7 -10 -20
-22 -30 -11 -11 -17 -19 -12 -19 5 0 2 -5 -6 -10 -10 -7 32 -10 128 -10 158 0
152 3 132 -70 -9 -34 -13 -51 -25 -115 -3 -16 -8 -37 -11 -45 -5 -13 -12 -48
-18 -90 -1 -9 -5 -21 -10 -28 -4 -6 -5 -12 -2 -12 3 0 -1 -19 -8 -43 -7 -24
-12 -51 -10 -60 1 -9 -2 -17 -7 -17 -6 0 -8 -4 -5 -8 3 -5 -4 -42 -14 -82 -11
-41 -17 -76 -15 -79 3 -2 0 -10 -5 -17 -6 -6 -10 -16 -8 -20 1 -5 -3 -31 -10
-59 -7 -27 -15 -61 -18 -75 -3 -14 -6 -29 -8 -35 -2 -5 -6 -28 -11 -50 -10
-52 -14 -71 -19 -92 -14 -55 -37 -162 -41 -183 -4 -26 -7 -37 -19 -80 -4 -14
-9 -38 -11 -55 -2 -16 -4 -30 -5 -30 -2 0 -9 -33 -15 -65 -2 -14 -4 -25 -5
-25 -2 0 -9 -35 -14 -67 -3 -15 -7 -31 -10 -36 -3 -5 -8 -24 -11 -43 -3 -19
-12 -63 -20 -99 -8 -36 -18 -78 -21 -95 -9 -47 -12 -60 -14 -60 -1 0 -4 -11
-5 -25 -2 -14 -8 -43 -14 -65 -9 -38 -18 -76 -26 -120 -3 -11 -9 -40 -15 -65
-6 -25 -13 -56 -15 -70 -2 -14 -11 -52 -19 -85 -8 -33 -12 -63 -10 -67 3 -5 1
-8 -3 -8 -5 0 -9 -8 -10 -17 -2 -18 -7 -48 -19 -101 -4 -15 -8 -36 -9 -47 -2
-11 -4 -20 -5 -20 -2 0 -4 -9 -6 -20 -2 -11 -8 -40 -14 -65 -6 -25 -13 -54
-14 -65 -2 -11 -6 -27 -9 -35 -5 -15 -27 -119 -33 -155 -2 -11 -17 -81 -34
-155 -18 -74 -33 -146 -35 -160 -2 -14 -5 -27 -6 -30 -1 -3 -3 -9 -4 -15 -1
-5 -4 -23 -8 -40 -8 -34 -9 -37 -35 -152 l-19 -83 1058 0 1058 0 -2 30 c-1 16
-4 30 -7 30 -3 0 -6 8 -6 18 -1 24 -13 91 -24 132 -5 19 -11 46 -14 60 -2 14
-5 27 -6 30 -1 3 -3 10 -4 15 -1 6 -6 33 -11 60 -10 58 -12 64 -15 68 -2 2 -3
6 -20 92 -6 33 -13 70 -15 82 -2 12 -6 26 -9 32 -4 5 -9 30 -12 56 -3 26 -10
58 -15 72 -5 14 -7 28 -5 30 3 3 0 16 -5 30 -5 14 -12 42 -15 62 -3 20 -9 52
-14 71 -9 33 -13 55 -25 118 -3 15 -8 33 -10 40 -2 7 -7 34 -11 59 -3 26 -10
59 -16 72 -5 13 -11 44 -14 67 -5 40 -3 44 26 59 16 8 30 20 30 26 0 6 4 8 9
5 5 -3 19 4 33 17 13 12 27 22 30 22 4 0 16 7 26 15 10 8 26 20 35 25 112 67
294 192 289 199 -3 5 -1 6 5 3 10 -6 81 37 95 57 4 6 8 7 8 3 0 -5 18 5 39 22
21 17 41 31 44 31 6 0 316 203 349 229 14 12 31 21 37 21 6 0 11 5 11 10 0 6
7 10 15 10 8 0 15 5 15 10 0 6 5 10 10 10 6 0 36 17 68 39 31 21 152 100 267
176 116 76 213 142 216 147 3 5 8 8 10 7 9 -7 67 35 62 44 -3 6 -1 7 5 3 6 -3
16 -1 24 6 7 7 25 19 40 27 15 8 37 23 48 33 11 10 20 17 20 15 0 -4 333 212
355 230 6 5 44 30 85 56 99 62 110 70 126 85 8 7 14 10 14 7 0 -4 13 4 29 17
15 12 37 28 47 35 17 11 15 12 -16 13 -19 1 -46 3 -60 5 -14 1 -63 6 -109 10
-47 4 -93 8 -103 10 -10 2 -51 6 -91 10 -39 3 -88 7 -107 10 -19 2 -64 7 -100
10 -36 3 -76 8 -90 10 -14 2 -61 7 -105 10 -44 3 -94 8 -111 11 -26 4 -99 -14
-174 -43 -21 -9 -18 -8 -87 -28 -35 -10 -63 -21 -63 -24 0 -3 -10 -7 -23 -8
-12 0 -35 -6 -52 -13 -16 -6 -30 -10 -30 -8 -1 2 -14 -5 -29 -16 -16 -10 -26
-14 -23 -10 4 6 -557 -175 -580 -187 -2 -1 -6 -2 -10 -3 -12 -3 -356 -116
-373 -123 -8 -3 -19 -5 -24 -4 -4 1 -25 -4 -45 -10 -72 -24 -365 -98 -372 -94
-3 3 -14 46 -24 97 -9 51 -19 100 -22 108 -8 21 -10 29 -18 80 -4 24 -10 51
-14 60 -3 8 -6 24 -6 35 1 11 -3 26 -8 33 -5 6 -7 12 -4 12 3 0 2 14 -3 32 -5
17 -12 49 -16 72 -3 22 -7 44 -10 47 -2 4 -6 24 -10 45 -3 22 -10 57 -16 79
-6 22 -12 49 -13 60 -2 11 -6 31 -9 45 -8 37 -15 71 -21 107 l-5 32 140 3 140
3 -35 40 c-19 22 -58 69 -86 105 -73 91 -141 172 -161 191 -10 9 -18 20 -18
24 0 4 -11 18 -26 31 -14 13 -22 24 -18 24 4 0 -4 10 -17 23 -14 12 -27 27
-29 32 -3 6 -8 9 -12 8 -5 -2 -7 1 -5 6 1 5 -10 20 -25 34 -15 14 -24 28 -21
31 3 3 -2 8 -11 12 -9 3 -16 10 -16 16 0 5 -10 20 -22 33 -53 55 -78 86 -78
95 0 20 -19 9 -37 -20z"/>
</g>
</svg>
